<svg xmlns="http://www.w3.org/2000/svg" viewBox="0 0 200 200">
  <defs>
    <linearGradient id="bg" x1="0%" y1="0%" x2="100%" y2="100%">
      <stop offset="0%" stop-color="#1A2D4A"/>
      <stop offset="100%" stop-color="#0F1C30"/>
    </linearGradient>
    <linearGradient id="shield" x1="0%" y1="0%" x2="0%" y2="100%">
      <stop offset="0%" stop-color="#3A82C4"/>
      <stop offset="100%" stop-color="#1A5A9A"/>
    </linearGradient>
  </defs>
  <circle cx="100" cy="100" r="95" fill="url(#bg)"/>
  <!-- 盾 -->
  <path d="M100 45 L144 62 L144 104 Q144 136 100 156 Q56 136 56 104 L56 62 Z" fill="url(#shield)" stroke="#5AA0D4" stroke-width="2"/>
  <path d="M100 50 L136 65 L136 104 Q136 132 100 150" fill="none" stroke="white" stroke-width="1" opacity="0.25"/>
  <!-- 猫の耳 -->
  <polygon points="82,82 88,68 94,80" fill="white"/>
  <polygon points="84,80 88,70 92,79" fill="#FFC0C0"/>
  <polygon points="106,80 112,68 118,82" fill="white"/>
  <polygon points="108,79 112,70 116,80" fill="#FFC0C0"/>
  <!-- 猫の顔 -->
  <circle cx="100" cy="95" r="23" fill="white"/>
  <ellipse cx="91" cy="92" rx="4" ry="5" fill="#1A2D4A"/>
  <circle cx="92.5" cy="90.5" r="1.5" fill="white"/>
  <ellipse cx="109" cy="92" rx="4" ry="5" fill="#1A2D4A"/>
  <circle cx="110.5" cy="90.5" r="1.5" fill="white"/>
  <ellipse cx="100" cy="99" rx="3" ry="2" fill="#FFB6C1"/>
  <line x1="78" y1="98" x2="90" y2="99" stroke="#8A8A8A" stroke-width="1"/>
  <line x1="78" y1="102" x2="90" y2="102" stroke="#8A8A8A" stroke-width="1"/>
  <line x1="110" y1="99" x2="122" y2="98" stroke="#8A8A8A" stroke-width="1"/>
  <line x1="110" y1="102" x2="122" y2="102" stroke="#8A8A8A" stroke-width="1"/>
  <!-- チェック -->
  <path d="M86 127 L96 137 L116 117" stroke="#F0C040" stroke-width="4" fill="none" stroke-linecap="round" stroke-linejoin="round"/>
</svg>