<svg xmlns="http://www.w3.org/2000/svg" viewBox="0 0 200 200">
  <defs>
    <linearGradient id="bg" x1="0%" y1="0%" x2="100%" y2="100%">
      <stop offset="0%" stop-color="#1A2D4A"/>
      <stop offset="100%" stop-color="#0F1C30"/>
    </linearGradient>
  </defs>
  <circle cx="100" cy="100" r="95" fill="url(#bg)"/>
  <!-- 猫の耳 -->
  <polygon points="56,74 66,50 76,70" fill="white"/>
  <polygon points="59,70 66,54 73,68" fill="#FFC0C0"/>
  <polygon points="124,70 134,50 144,74" fill="white"/>
  <polygon points="127,68 134,54 141,70" fill="#FFC0C0"/>
  <!-- 顔 -->
  <circle cx="100" cy="84" r="30" fill="white"/>
  <!-- ハート目 -->
  <path d="M86,77 C86,73 91,71 93,74.5 C95,71 100,73 100,77 C100,81 93,87 93,87 C93,87 86,81 86,77Z" fill="#E74C6A"/>
  <path d="M100,77 C100,73 105,71 107,74.5 C109,71 114,73 114,77 C114,81 107,87 107,87 C107,87 100,81 100,77Z" fill="#E74C6A"/>
  <!-- 鼻 -->
  <ellipse cx="100" cy="91" rx="3" ry="2" fill="#FFB6C1"/>
  <!-- ひげ -->
  <line x1="64" y1="89" x2="85" y2="91" stroke="#8A8A8A" stroke-width="1.2"/>
  <line x1="64" y1="94" x2="85" y2="93" stroke="#8A8A8A" stroke-width="1.2"/>
  <line x1="115" y1="91" x2="136" y2="89" stroke="#8A8A8A" stroke-width="1.2"/>
  <line x1="115" y1="93" x2="136" y2="94" stroke="#8A8A8A" stroke-width="1.2"/>
  <!-- 医療十字 -->
  <rect x="87" y="120" width="26" height="9" rx="4" fill="#2ECC71"/>
  <rect x="92" y="115" width="16" height="19" rx="4" fill="#2ECC71"/>
  <!-- カプセル -->
  <rect x="60" y="134" width="28" height="12" rx="6" fill="#E74C6A"/>
  <rect x="60" y="134" width="14" height="12" rx="6" fill="white" opacity="0.45"/>
  <rect x="112" y="134" width="28" height="12" rx="6" fill="#F0C040"/>
  <rect x="112" y="134" width="14" height="12" rx="6" fill="white" opacity="0.45"/>
</svg>