<svg xmlns="http://www.w3.org/2000/svg" viewBox="0 0 200 200">
  <defs>
    <linearGradient id="bg" x1="0%" y1="0%" x2="100%" y2="100%">
      <stop offset="0%" stop-color="#1A2D4A"/>
      <stop offset="100%" stop-color="#0F1C30"/>
    </linearGradient>
    <linearGradient id="gold" x1="0%" y1="0%" x2="0%" y2="100%">
      <stop offset="0%" stop-color="#F0C040"/>
      <stop offset="100%" stop-color="#C4892A"/>
    </linearGradient>
  </defs>
  <circle cx="100" cy="100" r="95" fill="url(#bg)"/>
  <!-- トイレ本体 -->
  <ellipse cx="100" cy="148" rx="50" ry="18" fill="#C8C0B8"/>
  <ellipse cx="100" cy="138" rx="50" ry="18" fill="#EDE8E0"/>
  <!-- ドーム -->
  <path d="M52 138 Q52 92 100 92 Q148 92 148 138" fill="#F5F0E8" stroke="#C4892A" stroke-width="2.5"/>
  <!-- 入口 -->
  <ellipse cx="100" cy="138" rx="26" ry="14" fill="#2A3D56" opacity="0.5"/>
  <!-- LED -->
  <circle cx="128" cy="106" r="5" fill="#27AE60"/>
  <circle cx="128" cy="106" r="3" fill="#7BE09A"/>
  <!-- 猫の尻尾 -->
  <path d="M74 133 Q62 112 70 100 Q74 93 80 97" stroke="white" stroke-width="4.5" fill="none" stroke-linecap="round"/>
  <!-- 猫の体 -->
  <ellipse cx="86" cy="130" rx="13" ry="9" fill="white" opacity="0.92"/>
  <ellipse cx="78" cy="138" rx="6" ry="4" fill="white" opacity="0.9"/>
  <ellipse cx="90" cy="139" rx="6" ry="4" fill="white" opacity="0.9"/>
  <!-- AI バッジ -->
  <circle cx="150" cy="70" r="16" fill="url(#gold)"/>
  <text x="150" y="76" text-anchor="middle" fill="white" font-size="15" font-weight="bold" font-family="sans-serif">AI</text>
</svg>